<svg xmlns:dc="http://purl.org/dc/elements/1.1/" 
xmlns:cc="http://creativecommons.org/ns#" 
xmlns:rdf="http://www.w3.org/1999/02/22-rdf-syntax-ns#" xmlns:svg="http://www.w3.org/2000/svg" xmlns="http://www.w3.org/2000/svg" xmlns:xlink="http://www.w3.org/1999/xlink" id="svg79848" 
viewBox="300 300 400 230" height="150px" width="300px" version="1.1">

  <defs id="defs79852"></defs>
  <!-- <linearGradient spreadMethod="pad" y2="30%" x2="-10%" y1="120%" x1="30%" id="3d_gradient2-logo-41d875fa-235f-48e6-8e24-22cd7c12fe1c">
    <stop id="stop79829" stop-opacity="1" stop-color="#ffffff" offset="0%"></stop>
    <stop id="stop79831" stop-opacity="1" stop-color="#000000" offset="100%"></stop>
  </linearGradient>
  <linearGradient gradientTransform="rotate(-30)" spreadMethod="pad" y2="30%" x2="-10%" y1="120%" x1="30%" id="3d_gradient3-logo-41d875fa-235f-48e6-8e24-22cd7c12fe1c">
    <stop id="stop79834" stop-opacity="1" stop-color="#ffffff" offset="0%"></stop>
    <stop id="stop79836" stop-opacity="1" stop-color="#cccccc" offset="50%"></stop>
    <stop id="stop79838" stop-opacity="1" stop-color="#000000" offset="100%"></stop>
  </linearGradient> -->
  <g id="logo-group">
    <!-- <image xlink:href="" id="container" x="272" y="144" width="100" height="100" style="display: none;" transform="translate(0 0)"></image> -->
    <g id="logo-center" transform="translate(0 0)">
      <image xlink:href="" id="icon_container" style="display: none;" x="0" y="0"></image>
      <g id="slogan" style="font-style:normal;font-weight:100;font-size:32px;line-height:1;font-family:'Exo 2';font-variant-ligatures:none;text-align:center;text-anchor:middle" transform="translate(0 41)">
        <path id="path79856" style="font-style:normal;font-weight:100;font-size:32px;line-height:1;font-family:'Exo 2';font-variant-ligatures:none;text-align:center;text-anchor:middle" d="m 461.043,0 v -22.08 q 3.872,-0.288 7.456,-0.288 4.544,0 6.368,2.528 1.824,2.528 1.824,8.8 0,6.272 -1.824,8.8 -1.824,2.528 -6.368,2.528 -3.552,0 -7.456,-0.288 z m 1.312,-21.088 v 20.096 q 2.688,0.096 6.144,0.096 3.808,0 5.312,-2.24 1.504,-2.24 1.504,-7.904 0,-5.664 -1.504,-7.904 -1.504,-2.24 -5.312,-2.24 -3.392,0 -6.144,0.096 z" stroke-width="0" stroke-linejoin="miter" stroke-miterlimit="2" fill="#484a9c" stroke="#484a9c" transform="translate(0 387.97635007) translate(424.99842750000016 35.10944) scale(1.67) translate(-461.043 22.368)"></path>
        <path id="path79858" style="font-style:normal;font-weight:100;font-size:32px;line-height:1;font-family:'Exo 2';font-variant-ligatures:none;text-align:center;text-anchor:middle" d="m 483.48,0 h -1.312 v -22.08 h 1.312 z" stroke-width="0" stroke-linejoin="miter" stroke-miterlimit="2" fill="#484a9c" stroke="#484a9c" transform="translate(0 387.97635007) translate(460.2771775000001 35.5904) scale(1.67) translate(-482.168 22.08)"></path>
        <path id="path79860" style="font-style:normal;font-weight:100;font-size:32px;line-height:1;font-family:'Exo 2';font-variant-ligatures:none;text-align:center;text-anchor:middle" d="M 504.097,-12.8 V 0 h -0.928 l -0.256,-2.688 q -2.848,3.072 -6.752,3.072 -3.872,0 -5.568,-2.688 -1.664,-2.72 -1.664,-8.768 0,-6.336 1.888,-8.864 1.888,-2.528 6.624,-2.528 3.616,0 6.24,0.576 l -0.224,0.96 q -2.784,-0.352 -5.984,-0.352 -4,0 -5.568,2.208 -1.568,2.208 -1.568,8.064 0,5.472 1.376,7.84 1.376,2.368 4.672,2.368 1.952,0 3.36,-0.768 1.44,-0.768 3.04,-2.176 V -12.8 Z" stroke-width="0" stroke-linejoin="miter" stroke-miterlimit="2" fill="#484a9c" stroke="#484a9c" transform="translate(0 387.97635007) translate(471.56804750000003 34.94912) scale(1.67) translate(-488.929 22.464)"></path>
        <path id="path79862" style="font-style:normal;font-weight:100;font-size:32px;line-height:1;font-family:'Exo 2';font-variant-ligatures:none;text-align:center;text-anchor:middle" d="m 511.0425,0 h -1.312 v -22.08 h 1.312 z" stroke-width="0" stroke-linejoin="miter" stroke-miterlimit="2" fill="#484a9c" stroke="#484a9c" transform="translate(0 387.97635007) translate(506.30655250000007 35.5904) scale(1.67) translate(-509.7305 22.08)"></path>
        <path id="path79864" style="font-style:normal;font-weight:100;font-size:32px;line-height:1;font-family:'Exo 2';font-variant-ligatures:none;text-align:center;text-anchor:middle" d="m 531.5315,-20.928 h -7.616 V 0 h -1.312 v -20.928 h -7.584 v -1.152 h 16.512 z" stroke-width="0" stroke-linejoin="miter" stroke-miterlimit="2" fill="#484a9c" stroke="#484a9c" transform="translate(0 387.97635007) translate(515.1391825000001 35.5904) scale(1.67) translate(-515.0195 22.08)"></path>
        <path id="path79866" style="font-style:normal;font-weight:100;font-size:32px;line-height:1;font-family:'Exo 2';font-variant-ligatures:none;text-align:center;text-anchor:middle" d="M 545.191,-7.776 H 535.015 L 532.295,0 h -1.376 l 7.712,-21.664 q 0.16,-0.416 0.576,-0.416 h 1.792 q 0.416,0 0.576,0.416 L 549.287,0 h -1.376 z m -0.416,-1.152 -3.584,-10.272 -0.64,-1.792 h -0.896 l -0.64,1.792 -3.584,10.272 z" stroke-width="0" stroke-linejoin="miter" stroke-miterlimit="2" fill="#484a9c" stroke="#484a9c" transform="translate(0 387.97635007) translate(541.6913474999999 35.5904) scale(1.67) translate(-530.919 22.08)"></path>
        <path id="path79868" style="font-style:normal;font-weight:100;font-size:32px;line-height:1;font-family:'Exo 2';font-variant-ligatures:none;text-align:center;text-anchor:middle" d="m 554.1965,-22.08 v 18.464 q 0,1.12 0.672,1.824 0.704,0.672 1.824,0.672 h 8.544 v 0.96 q -2.88,0.16 -8.768,0.16 -1.664,0 -2.624,-0.96 -0.96,-0.992 -0.96,-2.528 V -22.08 Z" stroke-width="0" stroke-linejoin="miter" stroke-miterlimit="2" fill="#484a9c" stroke="#484a9c" transform="translate(0 387.97635007) translate(578.3737324999998 35.5904) scale(1.67) translate(-552.8845 22.08)"></path>
      </g>
      <g id="title" style="font-style:normal;font-weight:700;font-size:72px;line-height:1;font-family:'Comfortaa Bold Alt2';font-variant-ligatures:none;text-align:center;text-anchor:middle" transform="translate(0 0)">
        <path id="path79871" style="font-style:normal;font-weight:700;font-size:72px;line-height:1;font-family:'Comfortaa Bold Alt2';font-variant-ligatures:none;text-align:center;text-anchor:middle" d="m 423.06031,-28.512 23.04,-22.464 c 0.72,-0.648 1.08,-1.512 1.08,-2.52 0,-1.008 -0.288,-1.8 -1.008,-2.52 -0.72,-0.72 -1.512,-1.08 -2.52,-1.08 -1.008,-0.072 -1.872,0.288 -2.592,1.008 l -24.696,24.12 v -20.664 c 0,-1.008 -0.36,-1.872 -1.08,-2.592 -0.72,-0.72 -1.584,-1.008 -2.52,-1.008 -1.008,0 -1.872,0.288 -2.592,1.008 -0.72,0.72 -1.008,1.584 -1.008,2.592 v 49.176 c 0,0.936 0.288,1.8 1.008,2.52 0.72,0.72 1.584,1.08 2.592,1.08 0.936,0 1.8,-0.36 2.52,-1.08 0.72,-0.72 1.08,-1.584 1.08,-2.52 v -21.6 l 24.696,24.12 c 0.72,0.72 1.512,1.08 2.52,1.08 1.008,0 1.872,-0.36 2.592,-1.152 0.72,-0.648 1.008,-1.512 1.008,-2.52 0,-1.008 -0.36,-1.872 -1.08,-2.52 z" stroke-width="0" stroke-linejoin="miter" stroke-miterlimit="2" fill="#484a9c" stroke="#484a9c" transform="translate(0 295.17874807) translate(339.28651250000013 11.73962186) scale(1.67) translate(-409.16431 57.105042)"></path>
        <path id="path79873" style="font-style:normal;font-weight:700;font-size:72px;line-height:1;font-family:'Comfortaa Bold Alt2';font-variant-ligatures:none;text-align:center;text-anchor:middle" d="m 458.12206,-38.376 c -0.72,0.72 -1.008,1.584 -1.008,2.664 v 32.04 c 0,1.08 0.288,1.944 1.008,2.664 0.72,0.72 1.584,1.008 2.664,1.008 1.08,0 1.944,-0.288 2.664,-1.008 0.648,-0.72 1.008,-1.584 1.008,-2.664 v -32.04 c 0,-1.08 -0.36,-1.944 -1.008,-2.664 -0.72,-0.648 -1.584,-1.008 -2.664,-1.008 -1.08,0 -1.944,0.36 -2.664,1.008 z m 5.976,-15.48 c -0.936,-0.936 -2.016,-1.44 -3.312,-1.44 -1.296,0 -2.448,0.504 -3.384,1.44 -0.936,0.936 -1.368,2.016 -1.368,3.312 0,1.296 0.432,2.448 1.368,3.384 0.936,0.936 2.088,1.368 3.384,1.368 1.296,0 2.376,-0.432 3.312,-1.368 0.936,-0.936 1.44,-2.088 1.44,-3.384 0,-1.296 -0.504,-2.376 -1.44,-3.312 z" stroke-width="0" stroke-linejoin="miter" stroke-miterlimit="2" fill="#6a5294" stroke="#6a5294" transform="translate(0 295.17874807) translate(417.5589950000001 14.760722000000001) scale(1.67) translate(-456.03406 55.296)"></path>
        <path id="path79875" style="font-style:normal;font-weight:700;font-size:72px;line-height:1;font-family:'Comfortaa Bold Alt2';font-variant-ligatures:none;text-align:center;text-anchor:middle" d="m 495.97494,0.288 c 5.544,0 10.224,-1.944 14.112,-5.832 3.888,-3.888 5.904,-8.568 5.904,-14.112 0,-5.544 -2.016,-10.224 -5.904,-14.112 -3.888,-3.888 -8.568,-5.904 -14.112,-5.904 -5.544,0 -10.224,2.016 -14.112,5.904 -3.888,3.888 -5.832,8.568 -5.832,14.112 0,5.544 1.944,10.224 5.832,14.112 3.888,3.888 8.568,5.832 14.112,5.832 z m 0,-33.048 c 3.6,0 6.696,1.296 9.288,3.816 2.52,2.592 3.816,5.688 3.816,9.288 0,3.6 -1.296,6.696 -3.816,9.216 -2.592,2.592 -5.688,3.816 -9.288,3.816 -3.6,0 -6.696,-1.224 -9.216,-3.816 -2.592,-2.52 -3.816,-5.616 -3.816,-9.216 0,-3.6 1.224,-6.696 3.816,-9.288 2.52,-2.52 5.616,-3.816 9.216,-3.816 z" stroke-width="0" stroke-linejoin="miter" stroke-miterlimit="2" fill="#8c5a8c" stroke="#8c5a8c" transform="translate(0 295.17874807) translate(450.9537846 40.85280200000001) scale(1.67) translate(-476.03094 39.672)"></path>
        <path id="path79877" style="font-style:normal;font-weight:700;font-size:72px;line-height:1;font-family:'Comfortaa Bold Alt2';font-variant-ligatures:none;text-align:center;text-anchor:middle" d="m 549.02319,-38.16 c -2.448,-1.008 -5.256,-1.512 -8.352,-1.512 -2.592,0 -4.968,0.432 -7.2,1.224 -2.304,0.864 -4.104,2.088 -5.472,3.672 -1.44,1.656 -2.088,3.672 -2.088,5.976 0,5.832 4.608,9.648 13.824,11.376 3.528,0.72 6.048,1.512 7.56,2.52 1.44,1.008 2.232,2.232 2.232,3.672 0,1.584 -0.792,2.808 -2.304,3.672 -1.512,0.936 -3.6,1.368 -6.336,1.368 -2.088,0 -4.032,-0.36 -5.832,-1.08 -1.872,-0.72 -3.24,-1.656 -4.104,-2.664 -0.864,-0.864 -1.8,-1.296 -2.736,-1.296 -0.792,0 -1.656,0.36 -2.52,1.008 -1.008,0.72 -1.44,1.656 -1.44,2.808 0,0.864 0.288,1.656 0.936,2.232 1.584,1.656 3.888,2.952 6.768,3.96 2.88,1.008 5.904,1.512 9.216,1.512 3.24,0 6.048,-0.504 8.352,-1.512 2.304,-1.008 4.104,-2.448 5.328,-4.248 1.152,-1.8 1.8,-3.816 1.8,-6.048 0,-2.952 -1.152,-5.4 -3.312,-7.272 -2.16,-1.872 -5.904,-3.312 -11.088,-4.392 -2.592,-0.504 -4.536,-1.008 -5.832,-1.584 -1.368,-0.576 -2.304,-1.152 -2.736,-1.8 -0.504,-0.648 -0.72,-1.44 -0.72,-2.448 0,-1.296 0.648,-2.376 2.088,-3.096 1.44,-0.72 3.24,-1.152 5.472,-1.152 1.872,0 3.528,0.288 4.896,0.72 1.296,0.432 2.592,1.224 3.816,2.304 1.008,0.936 2.088,1.368 3.384,1.368 0.792,0 1.44,-0.144 2.016,-0.576 0.792,-0.648 1.224,-1.368 1.224,-2.232 0,-0.72 -0.36,-1.512 -0.936,-2.304 -1.44,-1.728 -3.456,-3.168 -5.904,-4.176 z" stroke-width="0" stroke-linejoin="miter" stroke-miterlimit="2" fill="#ae6185" stroke="#ae6185" transform="translate(0 295.17874807) translate(531.4882820999999 40.85280200000001) scale(1.67) translate(-524.25519 39.672)"></path>
        <path id="path79879" style="font-style:normal;font-weight:700;font-size:72px;line-height:1;font-family:'Comfortaa Bold Alt2';font-variant-ligatures:none;text-align:center;text-anchor:middle" d="m 596.46894,-3.024 c 0,-0.864 -0.288,-1.584 -0.792,-2.16 l -13.968,-17.136 13.248,-11.808 c 0.72,-0.576 1.152,-1.44 1.152,-2.448 0,-0.864 -0.36,-1.584 -0.936,-2.232 -0.648,-0.72 -1.44,-1.152 -2.448,-1.152 -0.864,0 -1.656,0.36 -2.232,0.936 l -17.496,15.624 v -29.304 c 0,-1.008 -0.36,-1.872 -1.008,-2.52 -0.648,-0.648 -1.512,-1.008 -2.52,-1.008 -1.08,0 -1.944,0.36 -2.592,1.008 -0.648,0.648 -0.936,1.512 -0.936,2.52 v 49.176 c 0,1.08 0.288,1.944 0.936,2.592 0.648,0.648 1.512,0.936 2.592,0.936 1.008,0 1.872,-0.288 2.52,-0.936 0.648,-0.648 1.008,-1.512 1.008,-2.592 v -11.016 l 3.6,-3.168 13.68,16.92 c 0.648,0.864 1.512,1.296 2.592,1.296 0.792,0 1.584,-0.288 2.304,-0.864 0.864,-0.72 1.296,-1.584 1.296,-2.664 z" stroke-width="0" stroke-linejoin="miter" stroke-miterlimit="2" fill="#d0697d" stroke="#d0697d" transform="translate(0 295.17874807) translate(601.1034845999999 13.197602000000003) scale(1.67) translate(-565.94094 56.232)"></path>
        <path id="path79881" style="font-style:normal;font-weight:700;font-size:72px;line-height:1;font-family:'Comfortaa Bold Alt2';font-variant-ligatures:none;text-align:center;text-anchor:middle" d="m 608.59081,-38.376 c -0.72,0.72 -1.008,1.584 -1.008,2.664 v 32.04 c 0,1.08 0.288,1.944 1.008,2.664 0.72,0.72 1.584,1.008 2.664,1.008 1.08,0 1.944,-0.288 2.664,-1.008 0.648,-0.72 1.008,-1.584 1.008,-2.664 v -32.04 c 0,-1.08 -0.36,-1.944 -1.008,-2.664 -0.72,-0.648 -1.584,-1.008 -2.664,-1.008 -1.08,0 -1.944,0.36 -2.664,1.008 z m 5.976,-15.48 c -0.936,-0.936 -2.016,-1.44 -3.312,-1.44 -1.296,0 -2.448,0.504 -3.384,1.44 -0.936,0.936 -1.368,2.016 -1.368,3.312 0,1.296 0.432,2.448 1.368,3.384 0.936,0.936 2.088,1.368 3.384,1.368 1.296,0 2.376,-0.432 3.312,-1.368 0.936,-0.936 1.44,-2.088 1.44,-3.384 0,-1.296 -0.504,-2.376 -1.44,-3.312 z" stroke-width="0" stroke-linejoin="miter" stroke-miterlimit="2" fill="#f27175" stroke="#f27175" transform="translate(0 295.17874807) translate(668.8418074999998 14.760722000000001) scale(1.67) translate(-606.50281 55.296)"></path>
      </g>
      <!-- <image xlink:href="" id="icon" style="display: none;" x="0" y="0"></image> -->
    </g>
  </g>
</svg>